<?xml version="1.0" encoding="UTF-8" standalone="no"?>
<!-- Created with Inkscape (http://www.inkscape.org/) -->

<svg
   width="257.03806mm"
   height="258.73511mm"
   viewBox="0 0 257.03806 258.73511"
   version="1.1"
   id="svg5"
   sodipodi:docname="micro_v2.svg"
   xml:space="preserve"
   inkscape:version="1.2.2 (732a01da63, 2022-12-09)"
   xmlns:inkscape="http://www.inkscape.org/namespaces/inkscape"
   xmlns:sodipodi="http://sodipodi.sourceforge.net/DTD/sodipodi-0.dtd"
   xmlns="http://www.w3.org/2000/svg"
   xmlns:svg="http://www.w3.org/2000/svg"><sodipodi:namedview
     id="namedview7"
     pagecolor="#505050"
     bordercolor="#eeeeee"
     borderopacity="1"
     inkscape:showpageshadow="0"
     inkscape:pageopacity="0"
     inkscape:pagecheckerboard="0"
     inkscape:deskcolor="#505050"
     inkscape:document-units="mm"
     showgrid="false"
     inkscape:zoom="0.46769781"
     inkscape:cx="405.17615"
     inkscape:cy="461.83667"
     inkscape:window-width="1366"
     inkscape:window-height="705"
     inkscape:window-x="-8"
     inkscape:window-y="-8"
     inkscape:window-maximized="1"
     inkscape:current-layer="layer1" /><defs
     id="defs2" /><g
     inkscape:label="Layer 1"
     inkscape:groupmode="layer"
     id="layer1"
     transform="translate(15.376322,-20.829736)"><path
       id="path1601"
       style="fill:#000000;stroke-width:2.57886"
       d="M -15.376322,20.829736 V 150.19755 279.56485 H 113.14245 241.66174 V 150.19755 20.829736 H 113.14245 Z M 113.14245,40.234753 c 17.40477,0 21.13092,0.902511 32.21767,7.802108 9.1272,5.68022 14.49018,11.565624 19.71921,21.641056 6.97993,13.448695 7.18406,14.980288 7.12566,54.294363 -0.047,33.67387 -0.84704,42.19004 -4.77283,50.80465 -6.00354,13.17371 -16.7837,24.02472 -29.87105,30.06793 -6.01013,2.77528 -16.15465,4.74803 -24.41866,4.74803 -24.043241,0 -44.361035,-13.03021 -54.289195,-34.81596 -3.925854,-8.61461 -4.729095,-17.13078 -4.772835,-50.80465 -0.0549,-39.314075 0.146081,-40.845668 7.125663,-54.294363 5.22898,-10.075432 10.591996,-15.960836 19.71921,-21.641056 11.086666,-6.899597 14.812418,-7.802108 32.217157,-7.802108 z m 0.51108,15.586129 c -18.475325,-0.02294 -36.268448,12.655227 -41.357684,31.107145 -3.595578,13.035878 -3.664828,61.504403 -0.106454,74.403213 3.587828,13.00557 14.135956,24.43201 26.815934,29.04887 h 5.17e-4 c 22.466387,8.17996 45.903247,-3.26723 54.109357,-26.42836 4.2868,-12.09924 4.85976,-62.57372 0.87437,-77.023723 C 150.31255,73.596325 137.41831,60.845537 123.91182,57.184623 120.52,56.265265 117.07488,55.825131 113.65353,55.820882 Z M 30.774866,143.72869 c 5.697606,0 6.634062,1.6124 9.64954,16.60933 7.914748,39.36336 35.381475,63.25608 72.718044,63.25608 37.33659,0 64.8038,-23.89272 72.71856,-63.25608 3.01539,-14.99693 3.95186,-16.60933 9.64954,-16.60933 6.00663,0 6.30388,0.74654 6.23838,15.52412 -0.17173,37.16305 -32.88188,74.14107 -71.25612,80.55271 -16.91325,2.82578 -10.38798,5.90611 14.13712,6.67349 23.45,0.73373 23.77581,0.83276 23.77581,7.21248 v 6.46834 l -54.68142,0.69815 c -46.983851,0.60016 -54.89245,0.14509 -56.180546,-3.23391 -3.682814,-9.66053 0.609013,-11.6949 24.673947,-11.6949 21.655749,0 29.445459,-2.6939 17.475935,-5.36349 -0.474206,0.002 -0.949059,-0.004 -1.424719,-0.0289 -1.078936,-0.11091 -2.029716,-0.3707 -2.815332,-0.79633 -38.443424,-6.60669 -70.744938,-43.2226 -70.917118,-80.4876 -0.0683,-14.77758 0.231693,-15.52412 6.238379,-15.52412 z" /><path
       style="fill:#ffffff;stroke-width:2.13813"
       d="m 390.04026,787.9407 c -62.86523,-10.59071 -115.3845,-44.8266 -149.29878,-97.32383 -15.62089,-24.18018 -24.46722,-46.05091 -29.5705,-73.10697 -3.32464,-17.62625 -3.75489,-35.05907 -3.76298,-152.46603 -0.0105,-152.73892 -0.38963,-149.04922 19.4732,-189.52098 21.72237,-44.26066 41.63813,-67.92538 75.85659,-90.13588 44.73801,-29.03853 50.22273,-30.37239 124.88876,-30.37239 74.66603,0 80.15075,1.33386 124.88876,30.37239 34.21846,22.2105 54.1342,45.87522 75.85658,90.13588 19.86283,40.47176 19.48372,36.78206 19.4732,189.52098 -0.009,117.40696 -0.43834,134.83978 -3.76299,152.46603 -11.276,59.78204 -48.66732,111.14016 -106.005,145.60111 -38.2593,22.99453 -98.72766,33.13665 -148.03684,24.82969 z M 466.373,725.88238 c 57.28639,-13.15065 105.31415,-63.63367 117.30574,-123.30263 11.82349,-58.8325 12.51195,-209.05651 1.21089,-264.21627 -11.43324,-55.80487 -61.459,-108.37272 -117.70763,-123.689 -19.01948,-5.17894 -55.8273,-5.14617 -75.90371,0.0676 -64.09004,16.64385 -111.21382,66.41609 -121.78899,128.63381 -9.85168,57.96116 -9.94631,197.09172 -0.17231,253.3126 9.915,57.03182 52.76481,106.18354 108.937,124.95829 29.48084,9.85356 57.73118,11.21147 88.11901,4.23564 z"
       id="path1941"
       transform="scale(0.26458333)" /><path
       style="fill:#ffffff;stroke-width:2.13813"
       d="m 247.3068,983.52923 c -25.53424,-2.68367 -32.42446,-8.53816 -32.42446,-27.55039 0,-19.40322 14.57199,-23.23533 98.35411,-25.86493 65.06936,-2.0423 83.82348,-4.46237 85.06995,-10.97758 0.68839,-3.59833 -12.84127,-10.42992 -20.65599,-10.42992 -6.76046,0 -54.12332,-12.34684 -69.26821,-18.05726 C 216.81488,856.12344 138.79385,775.89134 108.33033,684.92789 97.629047,652.97409 94.39666,631.71242 94.228376,592.16948 c -0.189881,-44.61765 0.819334,-46.94563 20.351574,-46.94563 7.10604,0 14.64614,0.92376 16.75577,2.0528 5.93072,3.17402 11.88249,19.66438 19.32338,53.53865 12.10749,55.11873 27.43595,93.58842 51.95598,130.39349 14.98443,22.49193 54.07601,60.36926 76.78412,74.39904 73.18327,45.21497 174.34085,53.05479 257.08086,19.92409 33.24905,-13.31356 61.20337,-32.53204 88.15697,-60.60754 40.14818,-41.81929 63.72341,-90.20664 79.95697,-164.10908 7.44089,-33.87427 13.39266,-50.36463 19.32337,-53.53865 2.10963,-1.12904 9.64974,-2.0528 16.75578,-2.0528 19.53004,0 20.53935,2.32721 20.3596,46.94488 -0.16378,40.63847 -3.42514,61.12685 -15.04393,94.50673 -23.63284,67.8954 -70.39832,127.33919 -133.5062,169.7003 -35.78105,24.01799 -73.2932,39.61024 -115.36676,47.95319 -37.67304,7.47033 -48.65456,13.48565 -34.74466,19.03195 10.70418,4.26807 33.10672,6.65583 82.85265,8.8308 91.87535,4.01694 90.87064,3.63953 90.87064,34.1344 v 14.57866 l -13.36333,1.27264 c -22.52572,2.14525 -356.43554,3.34759 -375.42436,1.35183 z"
       id="path1943"
       transform="scale(0.26458333)" /></g></svg>
